<?xml version="1.0" encoding="UTF-8"?>
<svg id="Layer_4" data-name="Layer 4" xmlns="http://www.w3.org/2000/svg" viewBox="0 0 1024 1024">
  <defs>
    <style>
      .cls-1 {
        fill: #fff;
        font-family: AdobeArabic-Regular, 'Adobe Arabic';
        font-size: 32.83px;
      }

      .cls-2 {
        fill: none;
      }
    </style>
  </defs>
  <text class="cls-1" transform="translate(12081.67 4747.41) rotate(63.83)"><tspan x="0" y="0">THE CHOICE OF SMART PEOPLE</tspan></text>
  <text class="cls-1" transform="translate(12081.67 4140.23) rotate(63.83)"><tspan x="0" y="0">THE CHOICE OF SMART PEOPLE</tspan></text>
  <g>
    <path class="cls-2" d="m246.59,532.71c-.44-.13-.7-.2-.7-.2.23.05.46.12.7.2Z"/>
    <path d="m52.51,461.04s.08-.1.12-.26c-.17.16-.22.26-.12.26Z"/>
    <path d="m973.54,730.24s-8.8-25.55-36.44-31c-27.65-5.45-53.62-.84-53.62-.84,0,0,7.54-23.46,21.37-23.88,0,0-28.91-7.54-49.01-2.52-20.11,5.03-82.11-1.25-98.44-27.65-16.34-26.39-40.22-47.34-59.48-57.81,0,0,7.12-1.25,12.56,1.68,0,0-15.92-21.36-40.63-27.65,0,0,8.8-2.93,15.5-.84,0,0-28.07-23.04-89.65-34.77-61.58-11.73-191.86-42.73-240.88-92.16,0,0,22.2-1.26,34.77,3.77,0,0-15.08-25.13-54.88-37.7,0,0,15.92-10.47,27.23-7.54,0,0-14.25-13.82-59.07-18.43,0,0,10.47-7.54,18.02-5.86,0,0-8.8-11.31-24.72-10.05-15.92,1.26-51.1,14.66-78.34-3.77,0,0,59.07-.42,61.16-10.48,2.09-10.05-38.12-71.21-54.88-83.36,0,0,4.61-2.93,10.05-.84,0,0-10.47-36.44-38.96-55.71-28.49-19.27-61.58-41.47-70.38-61.16-8.8-19.69-27.35-36.75-37.75-21.62,0,0,0,0,0,0,2.74-1.9,6.99-2.69,13.17-.18,10.82,4.38,5.92,26.53,5.92,26.53-5.92-7.47-24.21-9.53-24.21-9.53,0,0,0-.03,0-.05-.9,1.22-2.4,2.57-4.91,4.23-11.28,7.44-7.1,39.16-10.03,39.58-2.93.42-6.2-1.94-6.2-1.94,0,0-10.72,21.97-2.41,45.81,8.3,23.84,33.22,40.72,34.02,61.08.8,20.36-2.95,35.36-13.13,47.42-10.18,12.05-18.75,19.29-18.75,19.29,0,0,12.86,4.02,19.56,1.34,0,0-20.09,17.42-22.77,44.74-2.55,26.03-3.89,59.33-4.7,62.43,1.19-1.15,8.41-5.74,11.94-4.56,0,0-5.84,47.15,7.93,61.88,0,0,1.45-25.45,5.2-27.86,0,0,9.38,15,13.4,44.74,4.02,29.74,7.23,50.1,15.8,55.72,0,0,2.76-19.76,5.44-24.04,0,0,16.26,26.99,14.92,68.51,0,0,9.82-11.94,12.55-22.66,0,0,17.03,40.99,35.94,53.6,0,0-18.5-49.18-13.87-60.95,0,0,25.64,47.09,34.05,82.18,8.41,35.1,10.45,53.6,10.85,84.46.41,30.86,2.61,62.64-1.45,67.51-4.06,4.87-9.09,7.33-13.51,19.51l.22-8.63s-25.87,11.58-26.98,27.08c-1.11,15.5,8.86,25.53,8.86,25.53l2.84-11s11.07,15.06,36.31,12.63c0,0,1.99-18.6,6.64-20.15,0,0,.84,23.6,4.16,25.15,3.32,1.55,34.81-1.01,38.13-32.01,3.32-31-15.05-23.25-14.83-66.2.2-39.13,3.49-153.44,7.88-187.4.85-6.6,5.65-12.24,12.18-13.47,2.63-.5,5.52-.32,8.41,1.18,0,0-14.68-44.65-25.15-49.67,0,0,15.55-4.74,19.74-8.92,0,0-15.77-17.57-23.61-20.19-.01,0-.02,0-.03,0-.24-.08-.48-.15-.7-.2,0,0,.26.07.7.2.01,0,.02,0,.03,0,6.05,1.75,48.74,15.22,57.91,49.22,0,0-18.01-5.02-25.13-11.31,0,0,22.18,70.61,8.79,68.7-14.07-2.01-21.36-.84-23.04,20.53-1.68,21.37,11.31,53.62,35.61,54.88v-11.73s69.12,25.97,94.26,7.96l-14.66-9.63s58.86-19.69,99.18-51.11l-20-18.85s75.82,20.53,121.9,58.65c46.08,38.12,71.21,60.32,122.32,61.16,51.11.84,85.46,7.54,124.42,71.22,0,0,7.12,13.82,0,16.34-7.12,2.52-30.58,20.11-26.81,36.87l5.45-5.45s2.51,20.11,12.15,20.53c0,0,2.14-25.55,12.38-25.55,0,0-7.77,20.1-4.42,26.39,0,0,29.33,3.35,33.1-4.61,3.77-7.96,5.86-25.97,5.86-25.97,0,0,1.26,18.02,0,26.81,0,0,38.54,1.25,45.25-3.77,6.7-5.03-5.03-28.91-23.46-44.41-18.43-15.5-72.47-122.32-94.67-133.63-22.2-11.31-49.43,4.19-59.91-19.69-10.48-23.88-3.77-36.45-3.77-36.45,0,0,7.96,43.15,27.23,42.31,19.27-.84,36.86-10.47,59.48,18.43,22.62,28.91,38.96,62.42,66.61,59.07l-4.19-11.73s34.77,1.68,47.75-2.09c0,0-15.5-9.22-9.21-18.01,6.29-8.8,49.01-12.99,56.55-7.54ZM81.95,203.56s-1.8-14.42-13.39-20.09c0,0,6.7-9.79,7.47-17.51.77-7.73,8.76-8.5,11.59,5.92,2.83,14.42-.26,28.07-5.67,31.67Zm62.58-4.89s6.44-2.32,10.04-2.06c3.6.26,3.86-8.5,3.86-8.5,5.15,2.57,19.31,34.77,19.31,34.77-5.67-7.21-33.22-24.21-33.22-24.21Zm45.32,132.37c-7.73-7.22-4.64-34.77-2.83-31.04,1.81,3.73,13.65,12.75,13.65,12.75,1.8-3.6-.66-25.97,0-25.5,11.84,8.5,7.47,21.63,10.56,24.21,3.09,2.57,9.48-8.76,9.48-8.76,11.54,6.44,35.85,37.34,35.85,37.34-8.24,3.61-58.97-1.8-66.7-9.01Z"/>
    <path d="m246.62,532.72s-.02,0-.03,0c.01,0,.02,0,.03,0Z"/>
    <path d="m165.94,801.58l10.82,9.78s15.26-34.51,9.38-84.48c-5.62-47.77-46.74-84.17-46.74-84.17.39,18.74,2.34,62.06,2.34,62.06l1.56-8.2s2.24,13.41,2.63,40.73c.39,27.32-12.78,84.95-18.25,93.15-5.46,8.2-11.71,4.69-24.2,8.2-12.49,3.51-18.35,38.25-18.35,38.25,0,0,4.29,2.73,8.58,1.96,4.29-.78,4.29-6.64,4.29-6.64l.78,4.68c.78,4.68,11.32,3.51,11.32,3.51,0,0,0-2.73,3.12-9.76,3.12-7.03,12.49-10.15,12.49-10.15-7.81,3.12-8.59,19.91-8.59,19.91,0,0,22.25,2.34,29.67,1.95,7.42-.39,9.76-.39,15.41-16.78,5.65-16.4,3.72-64.01,3.72-64.01Z"/>
    <path d="m450.88,859s.02-.03.02-.03c0,0-.01.03-.02.03Z"/>
    <path d="m507.49,670.04c-33.96-4.68-54.65,6.63-55.04,19.12-.39,12.49,53.47,44.11,53.08,78.85-.39,34.74-28.89,62.45-38.64,62.45s-22.25-5.07-30.05,1.95c-7.81,7.03-18.35,20.3-19.91,29.28-1.56,8.98,3.12,13.66,3.12,13.66,0,0,3.9-6.64,7.03-5.85l-.78,5.85s7.81-.78,15.61-7.42c7.29-6.2,8.79-8.65,8.96-8.94,0,0,.02-.03.02-.03,0,0,0,.01-.02.03-.19.35-5.82,10.61-4.67,16.36,0,0,25.37.39,37.47-1.95,12.1-2.34,22.64-15.22,24.98-27.32,2.34-12.1,18.35-36.69,35.52-43.72,17.17-7.02,23.03-28.88,19.91-44.11,0,0,6.25-.78,7.81,3.9,0,0,3.9-28.5-8.59-45.28,0,0,4.69-4.69,12.89-3.52,0,0-34.74-38.64-68.7-43.33Z"/>
    <path d="m87.07,120.05c-2.05,1.42-3.27,3.46-3.82,5.23-1.24,3.97-1.29,11.02-1.29,11.54,3.25-4.42-1.5-7.13,5.11-16.77Z"/>
  </g>
  <text class="cls-1" transform="translate(11534.1 4140.23) rotate(63.83)"><tspan x="0" y="0">THE CHOICE OF SMART PEOPLE</tspan></text>
</svg>