<svg xmlns="http://www.w3.org/2000/svg" width="956" height="956" fill="none" viewBox="0 0 956 956">
  <path fill="#000" d="M478 .87C214.49.87.87 214.49.87 478S214.49 955.13 478 955.13 955.13 741.51 955.13 478 741.51.87 478 .87Zm0 833.47c-196.8 0-356.34-159.54-356.34-356.34 0-196.8 159.54-356.34 356.34-356.34 196.8 0 356.34 159.54 356.34 356.34 0 196.8-159.54 356.34-356.34 356.34Z"/>
  <path fill="#fff" d="m199.81 202.41-1.61-1.7c4.59-5.04 4.77-5.91-.06-11.01l-22.13-23.36c-4.87-5.14-5.74-5.01-10.99-.65l-1.69-1.78 16.52-15.65 1.69 1.78c-4.59 4.97-4.77 5.83.1 10.97l22.13 23.36c4.83 5.1 5.71 4.97 10.95.69l1.61 1.7-16.52 15.65Zm55.96-94.49c-4.04-3.64-9.38-7.24-15.31-3.46-5.27 3.36-5.39 8.66-2.99 12.42 3.09 4.84 7.83 5.12 15.34 4.24 7.83-.9 16.11-1.61 20.94 5.96 4.71 7.38 2.16 17.28-7.43 23.4-2.91 1.86-5.59 2.84-7.77 3.37-2.15.58-3.49.64-4.41.76-1.34-1.06-6.36-6.66-8.92-9.72l1.73-1.96c3.96 3.62 11.99 8.63 19.18 4.04 5.12-3.27 6.12-8.34 2.97-13.28-3.18-4.98-8.44-4.93-15.6-4.33-6.45.68-15.36 1.53-20.19-6.04-4.38-6.86-2.46-16.09 6.71-21.94 3.34-2.13 7-3.34 10.17-4.17 1.84 2.26 3.97 4.88 7.46 9l-1.88 1.73v-.02Zm110.54-4.98-.74-2.22c6.19-2.76 6.34-3.4 3.53-11.51l-10.57-30.98-.32.11-5.39 48.56-1.59.53-31.47-35.16-.21.07 6.05 22.14c1.81 6.51 2.9 9.79 4.07 12.81 1.37 3.6 3.4 3.51 8.82 2.3l.77 2.33-18.58 6.16-.77-2.33c4.41-1.93 5.58-3.55 5.2-6.84-.47-2.84-1.1-6.33-3.22-14.85l-4-15.95c-2.65-10.29-3.27-10.55-10.59-8.89l-.77-2.33 13.5-4.48 30.57 32.1 5.58-44.1 13.87-4.6.77 2.33c-6.74 2.88-7.13 3.31-4.32 10.89l10.01 27.7c2.97 8.06 3.36 8.52 10.45 6.88l.74 2.22-21.38 7.1-.01.01Zm114.43-16.08-.06-2.34c6.73-.84 7.05-1.4 6.73-9.98l-1.08-32.72H486l-19.31 44.89-1.67.04-19.86-42.8h-.22l-.66 22.95c-.17 6.75-.08 10.21.16 13.44.26 3.84 2.23 4.35 7.76 4.77l.06 2.45-19.57.48-.06-2.45c4.78-.56 6.37-1.77 6.96-5.03.38-2.85.79-6.38 1.25-15.15l.82-16.42c.46-10.61-.05-11.04-7.54-11.59l-.06-2.45 14.22-.35 19.89 39.62 18.19-40.56 14.61-.36.06 2.45c-7.29.79-7.78 1.08-7.31 9.16l1.51 29.42c.49 8.58.73 9.13 7.99 9.62l.06 2.34-22.53.55-.01.02Zm101.13 14.01.58-2.27c5.2.58 6.09.06 5.82-3.41-.33-3.42-.79-7.74-1.36-12.72l-17.34-4.43a252.78 252.78 0 0 0-5.97 8.95c-2.96 4.37-2.54 5.45 3.4 7.66l-.58 2.27-17.83-4.55.58-2.27c5.45.53 6.72.28 11.38-6.02l27.49-36.89h2.99c1.61 15.33 3.21 30.71 5.02 45.96.81 7.63 1.73 8.79 6.83 10.67l-.58 2.27-20.42-5.21-.01-.01Zm2.71-43.74-.16-.04c-4.26 5.88-8.53 11.98-12.59 17.74l14.8 3.78-2.06-21.47.01-.01Zm104.01 90.91c-.88-.48-1.69-.98-2.51-1.56-5.76-3.52-7.95-6.74-8.76-13.29-.6-4.84-.63-10.5-.96-15.13-.2-2.78-.99-4.35-4.76-6.41l-2.06-1.12-6.08 11.16c-3.28 6.02-2.89 6.94 2.72 10.63l-1.12 2.06-19.83-10.81 1.12-2.06c6.19 2.74 7.17 2.57 10.45-3.45l15.48-28.4c3.34-6.12 2.91-6.86-2.55-10.35l1.17-2.15 18.75 10.22c5.53 3.02 8.76 5.6 10.54 8.98 1.97 3.49 2.1 7.69-.28 12.04-3.39 6.22-9.43 7.75-15.87 7.1 0 3.04.42 9.37.83 13.85.59 5.21 1.06 8.07 1.81 10.77.71 3.12 1.9 4.78 3.35 6.08l-1.44 1.82v.02Zm-14.47-38.12c3.67 2 6.44 2.75 9.1 2.29 3.97-.63 6.61-2.81 8.72-6.68 4.19-7.69.7-13.28-4.74-16.24-2.2-1.2-3.54-1.55-4.29-1.45-.7.12-1.45.8-2.46 2.66l-9.61 17.63 3.28 1.79Zm108.32 61.82c2.05-3.63 2.83-5.84 2.98-7.59.23-2.34-.45-3.77-5.18-8.01l-4.24-3.79-26.51 29.62c-4.31 4.82-4.41 6.01 1.16 11.66l-1.56 1.75-18.41-16.47 1.56-1.75c6.03 4.72 7.16 4.54 11.51-.32l26.51-29.62-3.62-3.23c-5.4-4.83-7.21-5.41-9.19-4.86-1.72.33-3.86 1.64-7.21 3.8l-1.87-1.67c3.82-3.69 7.72-7.46 10.86-10.71l1.33 1.19c-.46 2.36.33 3.06 2.16 4.7l25.18 22.53c1.7 1.52 2.62 1.67 4.62 1.36l1.33 1.19c-2.49 2.78-6.36 7.78-9.34 11.69l-2.06-1.47h-.01ZM129.46 682.35c2.17-1.79 3.2-2.99 3.71-4.06.71-1.42.63-2.48-1.32-6.3l-1.75-3.42-23.88 12.22c-3.89 1.99-4.23 2.71-2.1 7.62l-1.41.72-7.59-14.84 1.41-.72c2.65 4.43 3.41 4.6 7.33 2.59l23.88-12.22-1.49-2.91c-2.23-4.35-3.23-5.15-4.61-5.29-1.16-.21-2.83.09-5.46.64l-.77-1.51c3.3-1.39 6.67-2.82 9.43-4.11l.55 1.07c-.86 1.37-.54 2.01.22 3.48l10.38 20.3c.7 1.37 1.24 1.69 2.58 1.98l.55 1.07c-2.24 1.15-5.89 3.35-8.72 5.09l-.94-1.42v.02Zm32.21 37.22c-2.88-3.69-3.35-3.92-7.24-1.36l-18.29 12.03c-3.9 2.56-3.88 3.14-1.65 7.21l-1.32.87-8.58-13.04 1.32-.87c2.98 3.85 3.48 4.06 7.38 1.5l8.99-5.91-10.61-16.12-8.99 5.91c-3.87 2.54-3.9 3.11-1.65 7.21l-1.32.87-8.42-12.79 1.32-.87c2.8 3.57 3.27 3.75 7.17 1.18l18.29-12.03c3.9-2.56 3.89-3.05 1.64-7.16l1.38-.91 8.33 12.67-1.38.91c-2.71-3.44-3.18-3.67-7.08-1.11l-7.23 4.76 10.61 16.13 7.23-4.76c3.87-2.54 3.87-3.09 1.72-7.03l1.38-.91 8.37 12.73-1.38.91.01-.02Zm3.37 43.96c-1.84 1.02-6.46 3.4-8.14 4.14l-17.5-21.37 1.22-1c3.51 3.69 4.23 3.74 7.72.87l16.68-13.67c3.9-3.2 3.71-3.67 1.23-7.29l1.28-1.05 16.17 19.74c-1.06.96-3.74 3.45-5.98 5.58l-1.27-1.2c1.44-1.86 2.05-3.14 2.53-4.46.41-1.4-.28-2.84-2.74-5.83l-2.65-3.23c-1.17-1.43-1.36-1.42-2.64-.37l-9.55 7.82 3.27 3.99c3.2 3.9 3.78 3.91 7.12 2.1l1.07 1.31-8.36 6.84-1.07-1.31c2.61-3.16 2.58-3.67-.54-7.49l-3.27-3.99-7.83 6.42c-2.01 1.65-2.78 2.67-2.63 3.91.2 1.25 1.53 2.88 3.15 4.86 2.6 3.17 3.96 4.25 5.88 4.33 1.52.02 3.67-.38 5.92-1.15l.92 1.48.01.02Zm43.99 42.55c-2.34 1.42-6.41 3.56-8.33 4.19-1.47-.85-5.94-3.33-9.01-6.17-10.67-9.85-8.92-21.29-3.02-27.68 7.86-8.52 19.9-7.74 29.5 1.11 3.54 3.27 5.63 6.99 6.61 8.26-1.79 2.6-3.09 4.62-4.96 7.15l-1.5-.87c3-5.53 1.87-9.85-2.64-14.01-7.05-6.51-16.07-4.29-21.63 1.74-7.04 7.63-7.07 17.03-.57 23.03 4.29 3.96 8.75 3.83 14.79 1.67l.76 1.57v.01Zm53.13 9.15c-3.98-2.46-4.5-2.52-7.27 1.24l-12.98 17.64c-2.77 3.76-2.55 4.29.95 7.34l-.94 1.27-12.58-9.26.94-1.27c4.13 2.57 4.67 2.6 7.44-1.16l6.38-8.67-15.55-11.44-6.38 8.67c-2.74 3.73-2.58 4.27.95 7.34l-.94 1.27-12.33-9.08.94-1.27c3.86 2.37 4.37 2.38 7.14-1.38l12.98-17.64c2.77-3.76 2.59-4.22-.95-7.28l.98-1.33 12.21 8.99-.98 1.33c-3.74-2.29-4.26-2.34-7.02 1.42l-5.13 6.97 15.55 11.44 5.13-6.97c2.74-3.73 2.56-4.24-.82-7.2l.98-1.33 12.27 9.04-.98 1.33.01-.01Zm23.12 10.72c8.59 4.92 12.77 15.64 7.29 25.21-5.91 10.32-17.3 12.25-26.57 6.94-9.18-5.26-12.62-16.21-7.34-25.42 4.96-8.65 15.98-12.83 26.59-6.75l.03.02Zm-2.11 1.18c-5.49-3.14-13.27-1.66-18.46 7.38-5.03 8.78-3.64 18.39 3.38 22.41 5.49 3.14 13.02 1.65 18.32-7.59 5.74-10.02 3.22-18.5-3.21-22.18l-.03-.02Zm7.09 42.99.67-1.43c4.3 1.64 4.88 1.55 6.9-2.75l9.23-19.65c2.03-4.33 1.73-4.84-2.29-7.06l.7-1.5 13.9 6.52-.7 1.5c-4.25-1.66-4.84-1.56-6.87 2.76l-9.23 19.65c-2.01 4.29-1.72 4.81 2.26 7.05l-.67 1.43-13.9-6.52Zm56.37 13.27c-1.64 2.19-4.63 5.69-6.17 6.99-1.68-.24-6.75-.88-10.65-2.37-13.57-5.18-16.2-16.45-13.1-24.57 4.13-10.83 15.59-14.59 27.79-9.94 4.5 1.72 7.83 4.4 9.21 5.21-.69 3.08-1.15 5.44-1.95 8.48l-1.72-.25c.73-6.25-1.93-9.84-7.66-12.02-8.96-3.42-16.51 2-19.43 9.66-3.7 9.7-.23 18.44 8.03 21.59 5.45 2.08 9.55.3 14.35-3.95l1.28 1.17h.02Zm35.12 10.37c-.91 1.9-3.31 6.5-4.25 8.08l-26.63-7.32.42-1.52c5 .98 5.61.61 6.81-3.75l5.72-20.79c1.34-4.86.91-5.14-3.2-6.66l.44-1.6 24.6 6.77c-.31 1.4-1.06 4.98-1.66 8.01l-1.73-.24c.1-2.35-.14-3.75-.51-5.1-.48-1.38-1.87-2.15-5.6-3.18l-4.03-1.11c-1.78-.49-1.93-.37-2.37 1.22l-3.27 11.9 4.97 1.37c4.86 1.34 5.34 1 7.02-2.4l1.63.45-2.86 10.41-1.63-.45c.31-4.09-.01-4.49-4.77-5.8l-4.97-1.37-2.68 9.76c-.69 2.5-.73 3.78.11 4.71.88.91 2.91 1.47 5.38 2.14 3.96 1.09 5.69 1.17 7.3.13 1.25-.87 2.78-2.44 4.17-4.36l1.61.68-.02.02Zm49.11-19.63c9.82 1.2 17.84 9.45 16.51 20.39-1.44 11.8-11.18 18.01-21.78 16.72-10.5-1.28-17.92-10.03-16.64-20.56 1.21-9.9 9.74-18.03 21.88-16.56h.04l-.01.01Zm-1.48 1.9c-6.28-.76-12.88 3.63-14.13 13.97-1.22 10.05 3.79 18.35 11.82 19.33 6.28.76 12.64-3.54 13.92-14.11 1.4-11.47-4.22-18.29-11.58-19.19h-.04.01Zm49.11 10.46c-.43-2.19-.77-3.41-1.57-4.52-.94-1.57-2.13-2.09-6.3-2.2l-4.1-.11c-1.77-.05-1.92.1-1.97 1.75l-.34 12.86 5.64.15c5.15.14 5.47-.38 6.28-3.93l1.66.04-.29 10.83-1.69-.05c-.57-3.85-.86-4.46-6.01-4.6l-5.64-.15-.26 9.59c-.13 4.89.35 5.24 5.49 5.76l-.04 1.58-15.83-.42.04-1.58c4.49-.22 4.98-.58 5.12-5.47l.58-21.48c.13-4.85-.35-5.17-4.67-5.58l.04-1.66 25.2.67c.02 2.03.19 5.54.38 8.29l-1.7.22-.02.01Zm44.68-2.53c-1.3-3.43-3.39-7.25-8.11-6.81-4.2.39-5.91 3.53-5.63 6.53.36 3.86 3.11 5.5 7.89 7.29 4.97 1.89 10.16 4.02 10.71 10.05.54 5.88-4.05 11.03-11.69 11.73-2.32.21-4.23-.03-5.7-.38-1.46-.32-2.29-.7-2.88-.91-.47-1.05-1.76-5.96-2.34-8.59l1.64-.64c1.26 3.4 4.52 8.88 10.25 8.35 4.08-.38 6.25-3.11 5.89-7.04-.37-3.97-3.54-5.57-8.01-7.43-4.08-1.59-9.69-3.83-10.24-9.87-.5-5.47 3.5-10.41 10.81-11.09 2.66-.24 5.23.16 7.39.64.4 1.93.87 4.15 1.69 7.71l-1.66.45-.01.01Zm46.04 19.89-.31-1.55c4.38-1.33 4.53-1.74 3.33-7.41l-4.47-21.63-.22.04-7.7 32.05-1.11.22-18.1-26.19-.15.03 2.19 15.33c.66 4.51 1.11 6.8 1.65 8.92.61 2.52 1.98 2.64 5.71 2.29l.32 1.62-12.96 2.56-.32-1.62c3.12-.92 4.03-1.91 4.05-4.14-.08-1.94-.2-4.33-.91-10.21l-1.33-11.01c-.91-7.11-1.3-7.34-6.34-6.84l-.32-1.62 9.41-1.86 17.76 24.07 7.45-29.05 9.67-1.91.32 1.62c-4.76 1.36-5.05 1.61-3.81 6.93l4.37 19.39c1.31 5.65 1.53 5.99 6.41 5.48l.31 1.55-14.91 2.95.01-.01Zm47.55-13.39-.5-1.5c3.17-1.57 3.48-2.19 2.06-4.06-1.44-1.82-3.27-4.11-5.41-6.73l-11.46 3.82c-.1 2.69-.13 4.96-.12 7.26-.08 3.56.55 4.02 4.72 3.11l.5 1.5-11.78 3.92-.5-1.5c3.29-1.69 3.92-2.3 4.26-7.57l2.14-30.98 1.7-1.08c6.51 8.11 13.02 16.25 19.61 24.25 3.25 4.04 4.19 4.36 7.77 3.56l.5 1.5-13.5 4.49.01.01Zm-14.42-25.82-.11.04c-.28 4.89-.47 9.91-.67 14.66l9.78-3.26-9-11.44Zm67.85 4.14c-.62.28-1.21.51-1.86.72-4.24 1.68-6.86 1.54-10.72-.67-2.85-1.64-5.92-3.93-8.54-5.63-1.58-1.02-2.75-1.23-5.39-.04l-1.44.65 3.54 7.81c1.91 4.22 2.56 4.38 6.83 2.85l.65 1.44-13.88 6.3-.65-1.44c3.99-2.22 4.3-2.82 2.39-7.03l-9.02-19.88c-1.94-4.28-2.51-4.36-6.61-2.83l-.68-1.51 13.13-5.96c3.87-1.76 6.58-2.45 9.12-2.03 2.68.35 4.99 1.99 6.38 5.04 1.97 4.35.35 8.23-2.62 11.44 1.64 1.24 5.22 3.58 7.8 5.18 3.05 1.8 4.78 2.71 6.54 3.4 1.97.88 3.35.92 4.64.66l.4 1.51-.01.02Zm-26.42-7.68c2.57-1.17 4.1-2.35 4.93-3.97 1.27-2.39 1.17-4.71-.06-7.41-2.44-5.38-6.87-5.77-10.68-4.04-1.54.7-2.27 1.28-2.52 1.72-.22.43-.16 1.11.43 2.41l5.6 12.34 2.3-1.04v-.01Zm44.03-33.71c-1.88-2.09-3.13-3.07-4.22-3.53-1.45-.65-2.51-.52-6.23 1.6l-3.33 1.9 13.28 23.31c2.16 3.79 2.9 4.11 7.71 1.76l.78 1.37-14.49 8.25-.78-1.37c4.31-2.85 4.44-3.61 2.26-7.44l-13.28-23.31-2.84 1.62c-4.25 2.42-5 3.46-5.08 4.84-.16 1.17.22 2.82.88 5.43l-1.47.84c-1.54-3.24-3.12-6.54-4.53-9.24l1.05-.6c1.41.8 2.03.45 3.47-.37l19.82-11.29c1.34-.76 1.63-1.32 1.86-2.66l1.05-.6c1.25 2.19 3.62 5.74 5.48 8.48l-1.38 1-.01.01Zm27.51-30.12c3.2-2.45 6.16-3.9 8.96-3.96 2.8-.06 5.49 1.11 7.68 3.98 4.37 5.71 2.1 11.8-1.87 15.64-.62.62-1.54 1.32-2.05 1.66l-3.99 1.72 5.1 6.67c2.86 3.74 3.43 3.68 7.72.87l.96 1.26-12.49 9.55-.96-1.26c3.33-3.02 3.44-3.67.65-7.32l-13.19-17.25c-2.99-3.92-3.52-3.8-7-1.47l-1.01-1.31 11.48-8.78h.01Zm7.57 17.52c.73-.23 2.21-.83 3.61-1.91 2.78-2.13 5.16-6.32.91-11.88-3.63-4.75-8.19-4.39-11.72-1.7-1.23.94-1.97 1.88-2.04 2.41-.07.53.12 1.14 1.05 2.37l8.18 10.7.01.01Zm45.65-27.72c1.11 1.79 3.71 6.29 4.53 7.93l-20.5 18.52-1.06-1.17c3.52-3.69 3.53-4.41.5-7.76l-14.46-16c-3.38-3.74-3.85-3.53-7.34-.88l-1.11-1.23 18.93-17.11c1.01 1.01 3.63 3.57 5.87 5.71l-1.13 1.33c-1.93-1.35-3.24-1.9-4.57-2.31-1.42-.34-2.82.42-5.7 3.02l-3.1 2.8c-1.37 1.24-1.35 1.42-.24 2.65l8.28 9.16 3.83-3.46c3.74-3.38 3.72-3.97 1.75-7.21l1.26-1.14 7.24 8.01-1.26 1.14c-3.29-2.46-3.8-2.4-7.45.9l-3.83 3.46 6.79 7.51c1.74 1.93 2.8 2.65 4.03 2.44 1.24-.26 2.8-1.67 4.7-3.39 3.04-2.75 4.05-4.17 4.04-6.08-.06-1.52-.56-3.65-1.44-5.86l1.44-.99v.01Zm-1.44-38.79c6.63-7.34 18-9.15 26.18-1.76 8.82 7.97 8.29 19.51 1.13 27.44-7.09 7.85-18.52 8.88-26.39 1.77-7.4-6.68-9.14-18.34-.94-27.42l.03-.03h-.01Zm.7 2.31c-4.24 4.69-4.45 12.61 3.29 19.6 7.51 6.79 17.19 7.47 22.61 1.46 4.24-4.69 4.38-12.37-3.52-19.51-8.57-7.74-17.38-7.08-22.35-1.58l-.03.03Zm24.3-31.65c2.4-3.24 4.83-5.46 7.51-6.29 2.68-.83 5.58-.46 8.48 1.69 5.78 4.28 5.29 10.75 2.54 15.55-.42.76-1.12 1.7-1.51 2.16l-3.35 2.76 6.74 4.99c3.78 2.8 4.31 2.58 7.66-1.31l1.27.94-9.36 12.64-1.27-.94c2.36-3.82 2.29-4.48-1.4-7.22l-17.45-12.92c-3.96-2.93-4.43-2.67-7.13.53l-1.33-.98 8.6-11.61v.01Zm12.13 14.73c.64-.42 1.89-1.41 2.94-2.83 2.08-2.81 3.21-7.5-2.41-11.66-4.81-3.56-9.09-1.95-11.73 1.62-.92 1.24-1.37 2.36-1.29 2.88.08.53.43 1.07 1.67 1.98l10.83 8.01h-.01Zm35.59-38.21c1.4 1.31 5.28 5.11 6.42 6.48l-13.73 22.04-1.34-.84c2.26-4.27 2.2-4.88-1.89-7.43l-18.33-11.42c-4.06-2.53-4.54-2.39-7.27 1.41l-1.41-.88 8.06-12.93 1.41.88c-2.09 3.93-2.12 4.53 1.97 7.08l18.17 11.32c2.55 1.59 3.59 1.93 4.62 1.33 1.09-.61 2.2-2.18 3.37-4.06 1.57-2.52 2.34-4.4 1.8-6.24-.34-1.45-1.31-3.3-3.05-5.49l1.18-1.26.02.01Zm16.71-32.33c1.67 1.27 5.71 4.55 7.06 5.79l-12.52 24.62-1.41-.72c1.97-4.7 1.72-5.37-2.3-7.42l-19.22-9.78c-4.49-2.29-4.85-1.92-7.16 1.8l-1.48-.75 11.57-22.74c1.31.58 4.67 2.03 7.52 3.23l-.58 1.65c-2.28-.57-3.7-.61-5.1-.52-1.45.19-2.48 1.4-4.24 4.85l-1.89 3.72c-.84 1.64-.75 1.81.72 2.56l11 5.6 2.34-4.59c2.29-4.49 2.05-5.03-.94-7.36l.77-1.51 9.62 4.9-.77 1.51c-3.95-1.12-4.4-.89-6.64 3.5l-2.34 4.59 9.02 4.59c2.31 1.18 3.56 1.47 4.64.84 1.06-.68 2.02-2.56 3.18-4.84 1.86-3.66 2.29-5.34 1.6-7.12-.6-1.4-1.83-3.21-3.43-4.95l.99-1.44-.01-.01Z"/>
  <path fill="#000" d="M233.06 437.48s.04-.06.07-.15c-.1.09-.13.15-.07.15Z"/>
  <path fill="#fff" d="m909.08 485.36 8.42 25.25-21.46-16.5-20.62 16.5 6.32-25.25-18.94-16.83h24.85l6.71-23.14 8.2 23.14h23.35l-16.83 16.83Zm-832.71 0 8.41 25.24-21.46-16.49-20.61 16.49 6.31-25.24-18.93-16.83h24.84l6.71-23.13 8.21 23.13h23.34l-16.82 16.83Z"/>
</svg>
